<mxfile host="app.diagrams.net" modified="2022-06-12T17:48:21.110Z" agent="5.0 (Macintosh; Intel Mac OS X 10_15_7) AppleWebKit/537.36 (KHTML, like Gecko) Chrome/101.0.4951.64 Safari/537.36" etag="3NGEvPkEtH6hSLuMzW63" version="20.0.0" type="github">
  <diagram id="EPa1qadAUhM2DbEirtKw" name="Page-3">
    <mxGraphModel dx="946" dy="621" grid="1" gridSize="11" guides="1" tooltips="1" connect="1" arrows="1" fold="1" page="0" pageScale="1" pageWidth="827" pageHeight="1169" math="0" shadow="0">
      <root>
        <mxCell id="0" />
        <mxCell id="1" parent="0" />
        <mxCell id="Kx6Yt60g8bZjOF6irCSC-1" value="" style="rounded=0;whiteSpace=wrap;html=1;strokeWidth=2;" parent="1" vertex="1">
          <mxGeometry x="121" y="121" width="439" height="77" as="geometry" />
        </mxCell>
        <mxCell id="Kx6Yt60g8bZjOF6irCSC-2" value="&lt;b&gt;Trading &lt;br&gt;Data&lt;/b&gt;" style="rounded=0;whiteSpace=wrap;html=1;" parent="1" vertex="1">
          <mxGeometry x="130" y="150" width="60" height="40" as="geometry" />
        </mxCell>
        <mxCell id="Kx6Yt60g8bZjOF6irCSC-3" value="&lt;b&gt;Company &lt;br&gt;Data&lt;/b&gt;" style="rounded=0;whiteSpace=wrap;html=1;" parent="1" vertex="1">
          <mxGeometry x="290" y="150" width="70" height="40" as="geometry" />
        </mxCell>
        <mxCell id="Kx6Yt60g8bZjOF6irCSC-4" value="&lt;b&gt;Alternative &lt;br&gt;Data&lt;/b&gt;" style="rounded=0;whiteSpace=wrap;html=1;" parent="1" vertex="1">
          <mxGeometry x="474" y="150" width="70" height="40" as="geometry" />
        </mxCell>
        <mxCell id="Kx6Yt60g8bZjOF6irCSC-5" value="&lt;b&gt;Economic &lt;br&gt;Data&lt;/b&gt;" style="rounded=0;whiteSpace=wrap;html=1;" parent="1" vertex="1">
          <mxGeometry x="210" y="150" width="60" height="40" as="geometry" />
        </mxCell>
        <mxCell id="Kx6Yt60g8bZjOF6irCSC-6" value="&lt;b&gt;Social Media Data&lt;/b&gt;" style="rounded=0;whiteSpace=wrap;html=1;" parent="1" vertex="1">
          <mxGeometry x="380" y="150" width="80" height="40" as="geometry" />
        </mxCell>
        <mxCell id="Kx6Yt60g8bZjOF6irCSC-7" value="&lt;font style=&quot;font-size: 14px&quot; color=&quot;#007fff&quot;&gt;&lt;b&gt;Real-time / Historical Data&lt;/b&gt;&lt;/font&gt;" style="text;html=1;strokeColor=none;fillColor=none;align=center;verticalAlign=middle;whiteSpace=wrap;rounded=0;" parent="1" vertex="1">
          <mxGeometry x="241.25" y="120" width="187.5" height="30" as="geometry" />
        </mxCell>
        <mxCell id="QX21Mg_fsESfZL2N_wNg-1" value="&lt;font color=&quot;#007fff&quot; style=&quot;font-size: 14px&quot;&gt;&lt;b&gt;Decentralized Exchange (DEX)&amp;nbsp;&lt;/b&gt;&lt;/font&gt;" style="rounded=0;whiteSpace=wrap;html=1;fillColor=#dae8fc;strokeColor=#1A1A1A;strokeWidth=2;" parent="1" vertex="1">
          <mxGeometry x="231" y="396" width="267" height="44" as="geometry" />
        </mxCell>
        <mxCell id="QX21Mg_fsESfZL2N_wNg-2" value="Trader" style="rounded=0;whiteSpace=wrap;html=1;fontSize=14;strokeWidth=1;" parent="1" vertex="1">
          <mxGeometry x="165" y="242" width="88" height="22" as="geometry" />
        </mxCell>
        <mxCell id="QX21Mg_fsESfZL2N_wNg-18" value="" style="edgeStyle=orthogonalEdgeStyle;rounded=0;orthogonalLoop=1;jettySize=auto;html=1;fontSize=14;strokeWidth=2;" parent="1" source="QX21Mg_fsESfZL2N_wNg-5" target="QX21Mg_fsESfZL2N_wNg-2" edge="1">
          <mxGeometry relative="1" as="geometry" />
        </mxCell>
        <mxCell id="QX21Mg_fsESfZL2N_wNg-5" value="Trader" style="rounded=0;whiteSpace=wrap;html=1;fontSize=14;strokeWidth=1;" parent="1" vertex="1">
          <mxGeometry x="290" y="242" width="84" height="22" as="geometry" />
        </mxCell>
        <mxCell id="QX21Mg_fsESfZL2N_wNg-6" value="Trader" style="rounded=0;whiteSpace=wrap;html=1;fontSize=14;strokeWidth=1;" parent="1" vertex="1">
          <mxGeometry x="465" y="242" width="88" height="22" as="geometry" />
        </mxCell>
        <mxCell id="QX21Mg_fsESfZL2N_wNg-17" value="" style="endArrow=classic;startArrow=classic;html=1;rounded=0;fontSize=14;strokeWidth=2;exitX=1;exitY=0.5;exitDx=0;exitDy=0;entryX=0;entryY=0.5;entryDx=0;entryDy=0;" parent="1" target="QX21Mg_fsESfZL2N_wNg-5" edge="1">
          <mxGeometry width="50" height="50" relative="1" as="geometry">
            <mxPoint x="253" y="253" as="sourcePoint" />
            <mxPoint x="286" y="253" as="targetPoint" />
            <Array as="points" />
          </mxGeometry>
        </mxCell>
        <mxCell id="QX21Mg_fsESfZL2N_wNg-19" value="" style="endArrow=classic;startArrow=classic;html=1;rounded=0;fontSize=14;strokeWidth=2;exitX=1;exitY=0.5;exitDx=0;exitDy=0;" parent="1" source="QX21Mg_fsESfZL2N_wNg-5" edge="1">
          <mxGeometry width="50" height="50" relative="1" as="geometry">
            <mxPoint x="264" y="336" as="sourcePoint" />
            <mxPoint x="407" y="253" as="targetPoint" />
          </mxGeometry>
        </mxCell>
        <mxCell id="QX21Mg_fsESfZL2N_wNg-21" value="" style="endArrow=classic;startArrow=classic;html=1;rounded=0;fontSize=14;strokeWidth=2;entryX=0;entryY=0.5;entryDx=0;entryDy=0;" parent="1" target="QX21Mg_fsESfZL2N_wNg-6" edge="1">
          <mxGeometry width="50" height="50" relative="1" as="geometry">
            <mxPoint x="429" y="253" as="sourcePoint" />
            <mxPoint x="462" y="253" as="targetPoint" />
          </mxGeometry>
        </mxCell>
        <mxCell id="QX21Mg_fsESfZL2N_wNg-23" value="&lt;font style=&quot;font-size: 24px&quot;&gt;...&lt;/font&gt;" style="text;html=1;strokeColor=none;fillColor=none;align=center;verticalAlign=middle;whiteSpace=wrap;rounded=0;fontSize=14;" parent="1" vertex="1">
          <mxGeometry x="390" y="234" width="60" height="30" as="geometry" />
        </mxCell>
        <mxCell id="QX21Mg_fsESfZL2N_wNg-24" value="Portfolio" style="rounded=0;whiteSpace=wrap;html=1;fontSize=14;strokeWidth=1;" parent="1" vertex="1">
          <mxGeometry x="165" y="284" width="88" height="22" as="geometry" />
        </mxCell>
        <mxCell id="QX21Mg_fsESfZL2N_wNg-25" value="" style="edgeStyle=orthogonalEdgeStyle;rounded=0;orthogonalLoop=1;jettySize=auto;html=1;fontSize=14;strokeWidth=2;" parent="1" source="QX21Mg_fsESfZL2N_wNg-26" target="QX21Mg_fsESfZL2N_wNg-24" edge="1">
          <mxGeometry relative="1" as="geometry" />
        </mxCell>
        <mxCell id="QX21Mg_fsESfZL2N_wNg-26" value="Portfolio" style="rounded=0;whiteSpace=wrap;html=1;fontSize=14;strokeWidth=1;" parent="1" vertex="1">
          <mxGeometry x="290" y="284" width="84" height="22" as="geometry" />
        </mxCell>
        <mxCell id="QX21Mg_fsESfZL2N_wNg-27" value="Portfolio" style="rounded=0;whiteSpace=wrap;html=1;fontSize=14;strokeWidth=1;" parent="1" vertex="1">
          <mxGeometry x="465" y="284" width="88" height="22" as="geometry" />
        </mxCell>
        <mxCell id="QX21Mg_fsESfZL2N_wNg-28" value="" style="endArrow=classic;startArrow=classic;html=1;rounded=0;fontSize=14;strokeWidth=2;exitX=1;exitY=0.5;exitDx=0;exitDy=0;entryX=0;entryY=0.5;entryDx=0;entryDy=0;" parent="1" target="QX21Mg_fsESfZL2N_wNg-26" edge="1">
          <mxGeometry width="50" height="50" relative="1" as="geometry">
            <mxPoint x="253" y="295" as="sourcePoint" />
            <mxPoint x="286" y="295" as="targetPoint" />
            <Array as="points" />
          </mxGeometry>
        </mxCell>
        <mxCell id="QX21Mg_fsESfZL2N_wNg-29" value="" style="endArrow=classic;startArrow=classic;html=1;rounded=0;fontSize=14;strokeWidth=2;exitX=1;exitY=0.5;exitDx=0;exitDy=0;" parent="1" source="QX21Mg_fsESfZL2N_wNg-26" edge="1">
          <mxGeometry width="50" height="50" relative="1" as="geometry">
            <mxPoint x="264" y="378" as="sourcePoint" />
            <mxPoint x="407" y="295" as="targetPoint" />
          </mxGeometry>
        </mxCell>
        <mxCell id="QX21Mg_fsESfZL2N_wNg-30" value="" style="endArrow=classic;startArrow=classic;html=1;rounded=0;fontSize=14;strokeWidth=2;entryX=0;entryY=0.5;entryDx=0;entryDy=0;" parent="1" target="QX21Mg_fsESfZL2N_wNg-27" edge="1">
          <mxGeometry width="50" height="50" relative="1" as="geometry">
            <mxPoint x="429" y="295" as="sourcePoint" />
            <mxPoint x="462" y="295" as="targetPoint" />
          </mxGeometry>
        </mxCell>
        <mxCell id="QX21Mg_fsESfZL2N_wNg-31" value="&lt;font style=&quot;font-size: 24px&quot;&gt;...&lt;/font&gt;" style="text;html=1;strokeColor=none;fillColor=none;align=center;verticalAlign=middle;whiteSpace=wrap;rounded=0;fontSize=14;" parent="1" vertex="1">
          <mxGeometry x="390" y="276" width="60" height="30" as="geometry" />
        </mxCell>
        <mxCell id="QX21Mg_fsESfZL2N_wNg-32" value="Trading" style="rounded=0;whiteSpace=wrap;html=1;fontSize=14;strokeWidth=1;" parent="1" vertex="1">
          <mxGeometry x="165" y="328" width="88" height="22" as="geometry" />
        </mxCell>
        <mxCell id="QX21Mg_fsESfZL2N_wNg-33" value="" style="edgeStyle=orthogonalEdgeStyle;rounded=0;orthogonalLoop=1;jettySize=auto;html=1;fontSize=14;strokeWidth=2;" parent="1" source="QX21Mg_fsESfZL2N_wNg-34" target="QX21Mg_fsESfZL2N_wNg-32" edge="1">
          <mxGeometry relative="1" as="geometry" />
        </mxCell>
        <mxCell id="QX21Mg_fsESfZL2N_wNg-34" value="Trading" style="rounded=0;whiteSpace=wrap;html=1;fontSize=14;strokeWidth=1;" parent="1" vertex="1">
          <mxGeometry x="290" y="328" width="84" height="22" as="geometry" />
        </mxCell>
        <mxCell id="WNh4lLiXesFv2wywwSjK-2" value="" style="edgeStyle=orthogonalEdgeStyle;rounded=0;orthogonalLoop=1;jettySize=auto;html=1;" parent="1" source="QX21Mg_fsESfZL2N_wNg-35" target="QX21Mg_fsESfZL2N_wNg-1" edge="1">
          <mxGeometry relative="1" as="geometry" />
        </mxCell>
        <mxCell id="QX21Mg_fsESfZL2N_wNg-35" value="Trading" style="rounded=0;whiteSpace=wrap;html=1;fontSize=14;strokeWidth=1;" parent="1" vertex="1">
          <mxGeometry x="465" y="328" width="88" height="22" as="geometry" />
        </mxCell>
        <mxCell id="QX21Mg_fsESfZL2N_wNg-36" value="" style="endArrow=classic;startArrow=classic;html=1;rounded=0;fontSize=14;strokeWidth=2;exitX=1;exitY=0.5;exitDx=0;exitDy=0;entryX=0;entryY=0.5;entryDx=0;entryDy=0;" parent="1" target="QX21Mg_fsESfZL2N_wNg-34" edge="1">
          <mxGeometry width="50" height="50" relative="1" as="geometry">
            <mxPoint x="253" y="339" as="sourcePoint" />
            <mxPoint x="286" y="339" as="targetPoint" />
            <Array as="points" />
          </mxGeometry>
        </mxCell>
        <mxCell id="QX21Mg_fsESfZL2N_wNg-37" value="" style="endArrow=classic;startArrow=classic;html=1;rounded=0;fontSize=14;strokeWidth=2;exitX=1;exitY=0.5;exitDx=0;exitDy=0;" parent="1" source="QX21Mg_fsESfZL2N_wNg-34" edge="1">
          <mxGeometry width="50" height="50" relative="1" as="geometry">
            <mxPoint x="264" y="422" as="sourcePoint" />
            <mxPoint x="407" y="339" as="targetPoint" />
          </mxGeometry>
        </mxCell>
        <mxCell id="QX21Mg_fsESfZL2N_wNg-38" value="" style="endArrow=classic;startArrow=classic;html=1;rounded=0;fontSize=14;strokeWidth=2;entryX=0;entryY=0.5;entryDx=0;entryDy=0;" parent="1" target="QX21Mg_fsESfZL2N_wNg-35" edge="1">
          <mxGeometry width="50" height="50" relative="1" as="geometry">
            <mxPoint x="429" y="339" as="sourcePoint" />
            <mxPoint x="462" y="339" as="targetPoint" />
          </mxGeometry>
        </mxCell>
        <mxCell id="QX21Mg_fsESfZL2N_wNg-39" value="&lt;font style=&quot;font-size: 24px&quot;&gt;...&lt;/font&gt;" style="text;html=1;strokeColor=none;fillColor=none;align=center;verticalAlign=middle;whiteSpace=wrap;rounded=0;fontSize=14;" parent="1" vertex="1">
          <mxGeometry x="390" y="320" width="60" height="30" as="geometry" />
        </mxCell>
        <mxCell id="QX21Mg_fsESfZL2N_wNg-40" value="" style="endArrow=classic;html=1;rounded=0;fontSize=24;strokeWidth=2;entryX=1;entryY=0.5;entryDx=0;entryDy=0;" parent="1" target="Kx6Yt60g8bZjOF6irCSC-1" edge="1">
          <mxGeometry width="50" height="50" relative="1" as="geometry">
            <mxPoint x="616" y="418" as="sourcePoint" />
            <mxPoint x="666" y="462" as="targetPoint" />
            <Array as="points">
              <mxPoint x="616" y="160" />
            </Array>
          </mxGeometry>
        </mxCell>
        <mxCell id="QX21Mg_fsESfZL2N_wNg-42" value="" style="endArrow=classic;html=1;rounded=0;fontSize=24;strokeWidth=2;exitX=1;exitY=0.5;exitDx=0;exitDy=0;" parent="1" source="QX21Mg_fsESfZL2N_wNg-1" edge="1">
          <mxGeometry width="50" height="50" relative="1" as="geometry">
            <mxPoint x="275" y="358" as="sourcePoint" />
            <mxPoint x="616" y="418" as="targetPoint" />
          </mxGeometry>
        </mxCell>
        <mxCell id="QX21Mg_fsESfZL2N_wNg-43" value="" style="endArrow=classic;html=1;rounded=0;fontSize=24;strokeWidth=2;" parent="1" edge="1">
          <mxGeometry width="50" height="50" relative="1" as="geometry">
            <mxPoint x="616" y="251.5" as="sourcePoint" />
            <mxPoint x="572" y="251.5" as="targetPoint" />
            <Array as="points">
              <mxPoint x="605" y="251.5" />
            </Array>
          </mxGeometry>
        </mxCell>
        <mxCell id="QX21Mg_fsESfZL2N_wNg-44" value="" style="endArrow=classic;html=1;rounded=0;fontSize=24;strokeWidth=2;" parent="1" edge="1">
          <mxGeometry width="50" height="50" relative="1" as="geometry">
            <mxPoint x="616" y="296" as="sourcePoint" />
            <mxPoint x="572" y="296" as="targetPoint" />
          </mxGeometry>
        </mxCell>
        <mxCell id="QX21Mg_fsESfZL2N_wNg-45" value="" style="endArrow=classic;html=1;rounded=0;fontSize=24;strokeWidth=2;" parent="1" edge="1">
          <mxGeometry width="50" height="50" relative="1" as="geometry">
            <mxPoint x="616" y="339" as="sourcePoint" />
            <mxPoint x="572" y="339" as="targetPoint" />
            <Array as="points" />
          </mxGeometry>
        </mxCell>
        <mxCell id="QX21Mg_fsESfZL2N_wNg-46" value="" style="endArrow=classic;html=1;rounded=0;fontSize=24;strokeWidth=2;" parent="1" edge="1">
          <mxGeometry width="50" height="50" relative="1" as="geometry">
            <mxPoint x="352" y="198" as="sourcePoint" />
            <mxPoint x="352" y="219" as="targetPoint" />
          </mxGeometry>
        </mxCell>
        <mxCell id="QX21Mg_fsESfZL2N_wNg-47" value="" style="endArrow=none;html=1;rounded=0;fontSize=24;strokeWidth=2;" parent="1" edge="1">
          <mxGeometry width="50" height="50" relative="1" as="geometry">
            <mxPoint x="198" y="220" as="sourcePoint" />
            <mxPoint x="517" y="220" as="targetPoint" />
          </mxGeometry>
        </mxCell>
        <mxCell id="QX21Mg_fsESfZL2N_wNg-48" value="" style="endArrow=classic;html=1;rounded=0;fontSize=24;strokeWidth=2;entryX=0.5;entryY=0;entryDx=0;entryDy=0;" parent="1" target="QX21Mg_fsESfZL2N_wNg-2" edge="1">
          <mxGeometry width="50" height="50" relative="1" as="geometry">
            <mxPoint x="209" y="220" as="sourcePoint" />
            <mxPoint x="260" y="165" as="targetPoint" />
          </mxGeometry>
        </mxCell>
        <mxCell id="QX21Mg_fsESfZL2N_wNg-50" value="" style="endArrow=classic;html=1;rounded=0;fontSize=24;strokeWidth=2;" parent="1" edge="1">
          <mxGeometry width="50" height="50" relative="1" as="geometry">
            <mxPoint x="330" y="220" as="sourcePoint" />
            <mxPoint x="330" y="242" as="targetPoint" />
          </mxGeometry>
        </mxCell>
        <mxCell id="QX21Mg_fsESfZL2N_wNg-51" value="" style="endArrow=classic;html=1;rounded=0;fontSize=24;strokeWidth=2;entryX=0.5;entryY=0;entryDx=0;entryDy=0;" parent="1" target="QX21Mg_fsESfZL2N_wNg-6" edge="1">
          <mxGeometry width="50" height="50" relative="1" as="geometry">
            <mxPoint x="509" y="220" as="sourcePoint" />
            <mxPoint x="220" y="253" as="targetPoint" />
          </mxGeometry>
        </mxCell>
        <mxCell id="QX21Mg_fsESfZL2N_wNg-52" value="Trader" style="rounded=0;whiteSpace=wrap;html=1;fontSize=14;strokeWidth=1;" parent="1" vertex="1">
          <mxGeometry x="165" y="242" width="88" height="22" as="geometry" />
        </mxCell>
        <mxCell id="QX21Mg_fsESfZL2N_wNg-53" value="" style="edgeStyle=orthogonalEdgeStyle;rounded=0;orthogonalLoop=1;jettySize=auto;html=1;fontSize=14;strokeWidth=2;" parent="1" source="QX21Mg_fsESfZL2N_wNg-54" target="QX21Mg_fsESfZL2N_wNg-52" edge="1">
          <mxGeometry relative="1" as="geometry" />
        </mxCell>
        <mxCell id="QX21Mg_fsESfZL2N_wNg-54" value="Trader" style="rounded=0;whiteSpace=wrap;html=1;fontSize=14;strokeWidth=1;" parent="1" vertex="1">
          <mxGeometry x="290" y="242" width="84" height="22" as="geometry" />
        </mxCell>
        <mxCell id="QX21Mg_fsESfZL2N_wNg-55" value="Trader" style="rounded=0;whiteSpace=wrap;html=1;fontSize=14;strokeWidth=1;" parent="1" vertex="1">
          <mxGeometry x="465" y="242" width="88" height="22" as="geometry" />
        </mxCell>
        <mxCell id="QX21Mg_fsESfZL2N_wNg-56" value="" style="endArrow=classic;startArrow=classic;html=1;rounded=0;fontSize=14;strokeWidth=2;exitX=1;exitY=0.5;exitDx=0;exitDy=0;entryX=0;entryY=0.5;entryDx=0;entryDy=0;" parent="1" target="QX21Mg_fsESfZL2N_wNg-54" edge="1">
          <mxGeometry width="50" height="50" relative="1" as="geometry">
            <mxPoint x="253" y="253" as="sourcePoint" />
            <mxPoint x="286" y="253" as="targetPoint" />
            <Array as="points" />
          </mxGeometry>
        </mxCell>
        <mxCell id="QX21Mg_fsESfZL2N_wNg-57" value="" style="endArrow=classic;startArrow=classic;html=1;rounded=0;fontSize=14;strokeWidth=2;exitX=1;exitY=0.5;exitDx=0;exitDy=0;" parent="1" source="QX21Mg_fsESfZL2N_wNg-54" edge="1">
          <mxGeometry width="50" height="50" relative="1" as="geometry">
            <mxPoint x="264" y="336" as="sourcePoint" />
            <mxPoint x="407" y="253" as="targetPoint" />
          </mxGeometry>
        </mxCell>
        <mxCell id="QX21Mg_fsESfZL2N_wNg-58" value="" style="endArrow=classic;startArrow=classic;html=1;rounded=0;fontSize=14;strokeWidth=2;entryX=0;entryY=0.5;entryDx=0;entryDy=0;" parent="1" target="QX21Mg_fsESfZL2N_wNg-55" edge="1">
          <mxGeometry width="50" height="50" relative="1" as="geometry">
            <mxPoint x="429" y="253" as="sourcePoint" />
            <mxPoint x="462" y="253" as="targetPoint" />
          </mxGeometry>
        </mxCell>
        <mxCell id="QX21Mg_fsESfZL2N_wNg-59" value="&lt;font style=&quot;font-size: 24px&quot;&gt;...&lt;/font&gt;" style="text;html=1;strokeColor=none;fillColor=none;align=center;verticalAlign=middle;whiteSpace=wrap;rounded=0;fontSize=14;" parent="1" vertex="1">
          <mxGeometry x="390" y="234" width="60" height="30" as="geometry" />
        </mxCell>
        <mxCell id="QX21Mg_fsESfZL2N_wNg-60" value="" style="endArrow=classic;html=1;rounded=0;fontSize=24;strokeWidth=2;entryX=0.5;entryY=0;entryDx=0;entryDy=0;" parent="1" target="QX21Mg_fsESfZL2N_wNg-24" edge="1">
          <mxGeometry width="50" height="50" relative="1" as="geometry">
            <mxPoint x="209" y="265" as="sourcePoint" />
            <mxPoint x="325" y="210" as="targetPoint" />
          </mxGeometry>
        </mxCell>
        <mxCell id="QX21Mg_fsESfZL2N_wNg-61" value="" style="endArrow=classic;html=1;rounded=0;fontSize=24;strokeWidth=2;entryX=0.5;entryY=0;entryDx=0;entryDy=0;" parent="1" target="QX21Mg_fsESfZL2N_wNg-26" edge="1">
          <mxGeometry width="50" height="50" relative="1" as="geometry">
            <mxPoint x="332" y="265" as="sourcePoint" />
            <mxPoint x="330" y="276" as="targetPoint" />
          </mxGeometry>
        </mxCell>
        <mxCell id="QX21Mg_fsESfZL2N_wNg-62" value="" style="endArrow=classic;html=1;rounded=0;fontSize=24;strokeWidth=2;entryX=0.5;entryY=0;entryDx=0;entryDy=0;" parent="1" target="QX21Mg_fsESfZL2N_wNg-27" edge="1">
          <mxGeometry width="50" height="50" relative="1" as="geometry">
            <mxPoint x="509" y="265" as="sourcePoint" />
            <mxPoint x="325" y="287" as="targetPoint" />
          </mxGeometry>
        </mxCell>
        <mxCell id="QX21Mg_fsESfZL2N_wNg-63" value="" style="endArrow=classic;html=1;rounded=0;fontSize=24;strokeWidth=2;entryX=0.5;entryY=0;entryDx=0;entryDy=0;" parent="1" edge="1">
          <mxGeometry width="50" height="50" relative="1" as="geometry">
            <mxPoint x="209" y="307" as="sourcePoint" />
            <mxPoint x="209" y="326" as="targetPoint" />
          </mxGeometry>
        </mxCell>
        <mxCell id="QX21Mg_fsESfZL2N_wNg-64" value="" style="endArrow=classic;html=1;rounded=0;fontSize=24;strokeWidth=2;entryX=0.5;entryY=0;entryDx=0;entryDy=0;" parent="1" edge="1">
          <mxGeometry width="50" height="50" relative="1" as="geometry">
            <mxPoint x="332" y="307" as="sourcePoint" />
            <mxPoint x="332" y="326" as="targetPoint" />
          </mxGeometry>
        </mxCell>
        <mxCell id="QX21Mg_fsESfZL2N_wNg-66" value="" style="endArrow=classic;html=1;rounded=0;fontSize=24;strokeWidth=2;entryX=0.5;entryY=0;entryDx=0;entryDy=0;" parent="1" edge="1">
          <mxGeometry width="50" height="50" relative="1" as="geometry">
            <mxPoint x="509" y="307" as="sourcePoint" />
            <mxPoint x="509" y="326" as="targetPoint" />
          </mxGeometry>
        </mxCell>
        <mxCell id="QX21Mg_fsESfZL2N_wNg-67" value="" style="endArrow=none;html=1;rounded=0;fontSize=24;strokeWidth=2;" parent="1" edge="1">
          <mxGeometry width="50" height="50" relative="1" as="geometry">
            <mxPoint x="205" y="374" as="sourcePoint" />
            <mxPoint x="524" y="374" as="targetPoint" />
          </mxGeometry>
        </mxCell>
        <mxCell id="QX21Mg_fsESfZL2N_wNg-68" value="" style="endArrow=classic;html=1;rounded=0;fontSize=24;strokeWidth=2;" parent="1" edge="1">
          <mxGeometry width="50" height="50" relative="1" as="geometry">
            <mxPoint x="209" y="352" as="sourcePoint" />
            <mxPoint x="209" y="374" as="targetPoint" />
          </mxGeometry>
        </mxCell>
        <mxCell id="QX21Mg_fsESfZL2N_wNg-70" value="" style="endArrow=classic;html=1;rounded=0;fontSize=24;strokeWidth=2;" parent="1" edge="1">
          <mxGeometry width="50" height="50" relative="1" as="geometry">
            <mxPoint x="332" y="352" as="sourcePoint" />
            <mxPoint x="332" y="374" as="targetPoint" />
          </mxGeometry>
        </mxCell>
        <mxCell id="QX21Mg_fsESfZL2N_wNg-71" value="" style="endArrow=classic;html=1;rounded=0;fontSize=24;strokeWidth=2;" parent="1" edge="1">
          <mxGeometry width="50" height="50" relative="1" as="geometry">
            <mxPoint x="510" y="352" as="sourcePoint" />
            <mxPoint x="510" y="374" as="targetPoint" />
          </mxGeometry>
        </mxCell>
        <mxCell id="QX21Mg_fsESfZL2N_wNg-74" value="" style="endArrow=classic;html=1;rounded=0;fontSize=24;strokeWidth=2;entryX=0.5;entryY=0;entryDx=0;entryDy=0;" parent="1" target="QX21Mg_fsESfZL2N_wNg-1" edge="1">
          <mxGeometry width="50" height="50" relative="1" as="geometry">
            <mxPoint x="365" y="374" as="sourcePoint" />
            <mxPoint x="325" y="242" as="targetPoint" />
          </mxGeometry>
        </mxCell>
      </root>
    </mxGraphModel>
  </diagram>
</mxfile>
